<svg xmlns="http://www.w3.org/2000/svg"  viewBox="0 0 24 24" width="50px" height="50px"><path d="M 4 2 C 2.9069372 2 2 2.9069372 2 4 L 2 20 C 2 21.093063 2.9069372 22 4 22 L 20 22 C 21.093063 22 22 21.093063 22 20 L 22 4 C 22 2.9069372 21.093063 2 20 2 L 4 2 z M 4 4 L 8 4 L 8 8 L 4 8 L 4 4 z M 10 4 L 14 4 L 14 8 L 10 8 L 10 4 z M 16 4 L 20 4 L 20 8 L 16 8 L 16 4 z M 5.5 5 C 5.224 5 5 5.224 5 5.5 L 5 6.5 C 5 6.776 5.224 7 5.5 7 L 6.5 7 C 6.776 7 7 6.776 7 6.5 L 7 5.5 C 7 5.224 6.776 5 6.5 5 L 5.5 5 z M 11.5 5 C 11.224 5 11 5.224 11 5.5 L 11 6.5 C 11 6.776 11.224 7 11.5 7 L 12.5 7 C 12.776 7 13 6.776 13 6.5 L 13 5.5 C 13 5.224 12.776 5 12.5 5 L 11.5 5 z M 17.5 5 C 17.224 5 17 5.224 17 5.5 L 17 6.5 C 17 6.776 17.224 7 17.5 7 L 18.5 7 C 18.776 7 19 6.776 19 6.5 L 19 5.5 C 19 5.224 18.776 5 18.5 5 L 17.5 5 z M 4 10 L 8 10 L 8 14 L 4 14 L 4 10 z M 10 10 L 14 10 L 14 14 L 10 14 L 10 10 z M 16 10 L 20 10 L 20 14 L 16 14 L 16 10 z M 5.5 11 C 5.224 11 5 11.224 5 11.5 L 5 12.5 C 5 12.776 5.224 13 5.5 13 L 6.5 13 C 6.776 13 7 12.776 7 12.5 L 7 11.5 C 7 11.224 6.776 11 6.5 11 L 5.5 11 z M 4 16 L 8 16 L 8 20 L 4 20 L 4 16 z M 10 16 L 14 16 L 14 20 L 10 20 L 10 16 z M 16 16 L 20 16 L 20 20 L 16 20 L 16 16 z M 5.5 17 C 5.224 17 5 17.224 5 17.5 L 5 18.5 C 5 18.776 5.224 19 5.5 19 L 6.5 19 C 6.776 19 7 18.776 7 18.5 L 7 17.5 C 7 17.224 6.776 17 6.5 17 L 5.5 17 z"/></svg>