<?xml version="1.0" encoding="UTF-8"?>
<svg xmlns="http://www.w3.org/2000/svg" xmlns:xlink="http://www.w3.org/1999/xlink" viewBox="0 0 48 48" width="48px" height="48px">
<g id="surface21571985">
<path style=" stroke:none;fill-rule:nonzero;fill:rgb(0%,0%,0%);fill-opacity:1;" d="M 28 4 L 40 16 L 40 28.34375 L 36 32.34375 L 36 18 L 26 18 L 26 8 L 12 8 L 12 40 L 28.34375 40 L 27.171875 41.171875 C 26.421875 41.921875 26 42.9375 26 44 L 12 44 C 9.8125 44 8 42.1875 8 40 L 8 8 C 8 5.8125 9.8125 4 12 4 Z M 25.75 19.882812 C 26.070312 21.179688 25.75 23.285156 24.949219 25.71875 C 25.429688 26.691406 26.070312 27.664062 26.710938 28.636719 C 28.636719 28.476562 30.238281 28.476562 31.203125 29.125 C 32.003906 29.613281 32.167969 30.421875 31.847656 31.394531 C 31.367188 32.53125 30.402344 33.019531 29.28125 32.695312 C 28.320312 32.371094 27.191406 31.558594 26.070312 30.261719 C 24.949219 30.421875 23.824219 30.746094 22.703125 31.070312 C 21.417969 33.339844 20.140625 35.289062 18.855469 35.773438 C 18.535156 35.933594 18.210938 36 17.890625 36 C 17.25 36 16.765625 35.773438 16.445312 35.289062 C 16.125 34.804688 15.484375 33.828125 16.765625 32.371094 C 17.566406 31.398438 19.492188 30.425781 21.578125 29.777344 C 22.21875 28.480469 22.703125 27.183594 23.183594 25.722656 C 22.0625 23.613281 21.417969 21.34375 21.578125 20.046875 C 21.738281 18.746094 22.5625 18 23.664062 18 C 24.765625 18 25.429688 18.746094 25.75 19.882812 Z M 25.75 19.882812 "/>
<path style=" stroke:none;fill-rule:nonzero;fill:rgb(0%,0%,0%);fill-opacity:1;" d="M 40.292969 33.707031 L 44.292969 37.707031 L 34 48 L 30 48 L 30 44 Z M 43.707031 30.289062 L 41.707031 32.292969 L 45.707031 36.292969 L 47.707031 34.292969 C 48.097656 33.902344 48.097656 33.265625 47.707031 32.878906 L 45.121094 30.289062 C 44.730469 29.902344 44.097656 29.902344 43.707031 30.289062 Z M 43.707031 30.289062 "/>
</g>
</svg>
