<svg xmlns="http://www.w3.org/2000/svg"  viewBox="0 0 24 24" width="50px" height="50px"><path d="M 3.984375 2.9863281 A 1.0001 1.0001 0 0 0 3 4 L 3 19 C 3 20.093063 3.9069372 21 5 21 L 20 21 A 1.0001 1.0001 0 1 0 20 19 L 5 19 L 5 4 A 1.0001 1.0001 0 0 0 3.984375 2.9863281 z M 16 4 A 1 1 0 0 0 15 5 A 1 1 0 0 0 16 6 A 1 1 0 0 0 17 5 A 1 1 0 0 0 16 4 z M 20 7 A 1 1 0 0 0 19 8 A 1 1 0 0 0 20 9 A 1 1 0 0 0 21 8 A 1 1 0 0 0 20 7 z M 15 8 A 1 1 0 0 0 14 9 A 1 1 0 0 0 15 10 A 1 1 0 0 0 16 9 A 1 1 0 0 0 15 8 z M 11 10 A 1 1 0 0 0 10 11 A 1 1 0 0 0 11 12 A 1 1 0 0 0 12 11 A 1 1 0 0 0 11 10 z M 18 11 A 1 1 0 0 0 17 12 A 1 1 0 0 0 18 13 A 1 1 0 0 0 19 12 A 1 1 0 0 0 18 11 z M 8 13 A 1 1 0 0 0 7 14 A 1 1 0 0 0 8 15 A 1 1 0 0 0 9 14 A 1 1 0 0 0 8 13 z M 14 13 A 1 1 0 0 0 13 14 A 1 1 0 0 0 14 15 A 1 1 0 0 0 15 14 A 1 1 0 0 0 14 13 z M 11 15 A 1 1 0 0 0 10 16 A 1 1 0 0 0 11 17 A 1 1 0 0 0 12 16 A 1 1 0 0 0 11 15 z"/></svg>