<svg xmlns="http://www.w3.org/2000/svg"  viewBox="0 0 24 24" width="50px" height="50px"><path d="M 12 1 C 10.696 1 9.5965937 1.837 9.1835938 3 L 5 3 C 3.895 3 3 3.895 3 5 L 3 19 C 3 20.105 3.895 21 5 21 L 19 21 C 20.105 21 21 20.105 21 19 L 21 5 C 21 3.895 20.105 3 19 3 L 14.816406 3 C 14.403406 1.837 13.304 1 12 1 z M 12 3 C 12.552 3 13 3.448 13 4 C 13 4.414 12.747547 4.77 12.388672 4.921875 L 12 5 L 11.611328 4.921875 C 11.252453 4.77 11 4.414 11 4 C 11 3.448 11.448 3 12 3 z M 5 5 L 7 5 L 7 6 C 7 6.552 7.448 7 8 7 L 16 7 C 16.552 7 17 6.552 17 6 L 17 5 L 19 5 L 19 19 L 5 19 L 5 5 z"/></svg>