<svg xmlns="http://www.w3.org/2000/svg"  viewBox="0 0 24 24" width="50px" height="50px"><path d="M 9.7148438 2.3007812 L 8.2851562 3.6992188 L 9.6777344 5.1210938 C 9.260057 5.636562 9 6.2847794 9 7 C 9 7.0537242 9.0128365 7.0858052 9.015625 7.1347656 C 8.5302703 7.273436 8.0739293 7.5163894 7.703125 7.8867188 C 7.3565699 8.2323256 7.0417005 8.6077135 6.75 9 L 3 9 L 3 11 L 5.6152344 11 C 5.3528213 11.640913 5.1643539 12.31041 5.0722656 13 L 3 13 L 3 15 L 5.046875 15 C 5.1042131 15.69543 5.2164044 16.367362 5.3984375 17 L 3 17 L 3 19 L 6.2773438 19 C 6.4133113 19.216259 6.5596417 19.426115 6.71875 19.625 C 7.9015876 21.103547 9.75 22 12 22 C 14.25 22 16.098412 21.103547 17.28125 19.625 C 17.440358 19.426115 17.586689 19.216259 17.722656 19 L 21 19 L 21 17 L 18.601562 17 C 18.783668 16.367109 18.898583 15.696209 18.955078 15 L 21 15 L 21 13 L 18.919922 13 C 18.82481 12.323534 18.637095 11.651716 18.369141 11 L 21 11 L 21 9 L 17.242188 9 C 16.953568 8.6071632 16.641755 8.2306553 16.296875 7.8867188 C 15.926071 7.5163895 15.46973 7.273436 14.984375 7.1347656 C 14.987164 7.0858052 15 7.0537242 15 7 C 15 6.2847794 14.739943 5.636562 14.322266 5.1210938 L 15.714844 3.6992188 L 14.285156 2.3007812 L 12.566406 4.0566406 C 12.382877 4.0215578 12.193762 4 12 4 C 11.806238 4 11.617123 4.0215578 11.433594 4.0566406 L 9.7148438 2.3007812 z M 9.8730469 9 L 14.126953 9 C 14.421668 9 14.695098 9.1111136 14.884766 9.3007812 L 14.884766 9.3027344 C 16.159534 10.574018 17 12.494816 17 14 C 17 15.833333 16.535912 17.353547 15.71875 18.375 C 15.069519 19.186539 14.203814 19.729065 13 19.919922 L 13 11 L 11 11 L 11 19.919922 C 9.796186 19.729065 8.9304811 19.186539 8.28125 18.375 C 7.4640876 17.353547 7 15.833333 7 14 C 7 12.315667 7.8156977 10.598716 9.1152344 9.3027344 L 9.1152344 9.3007812 C 9.3049023 9.1111104 9.5783321 9 9.8730469 9 z"/></svg>