<?xml version="1.0"?><svg fill="#000000" xmlns="http://www.w3.org/2000/svg"  viewBox="0 0 24 24" width="50px" height="50px">    <path d="M 6 2 C 4.9 2 4 2.9 4 4 L 4 20 C 4 21.1 4.9 22 6 22 L 17.171875 22 L 15.171875 20 L 6 20 L 6 4 L 13 4 L 13 9 L 18 9 L 18 13.171875 L 20 15.171875 L 20 8 L 14 2 L 6 2 z M 15 15 L 15 17 L 20.146484 22.146484 L 22.146484 20.146484 L 17 15 L 15 15 z M 22.853516 20.853516 L 20.853516 22.853516 L 21.853516 23.853516 C 22.048516 24.048516 22.365547 24.048516 22.560547 23.853516 L 23.853516 22.560547 C 24.048516 22.364547 24.048516 22.048516 23.853516 21.853516 L 22.853516 20.853516 z"/></svg>