<svg xmlns="http://www.w3.org/2000/svg"  viewBox="0 0 50 50" width="50px" height="50px"><path d="M 3 17 C 2.476563 17 1.945313 17.191406 1.570313 17.566406 C 1.191406 17.945313 1 18.476563 1 19 L 1 33 L 49 33 L 49 19 C 49 18.476563 48.808594 17.945313 48.433594 17.566406 C 48.054688 17.191406 47.523438 17 47 17 Z M 3 19 L 47 19 L 47 31 L 3 31 Z M 6 22 C 5.398438 22 5 22.398438 5 23 L 5 27 C 5 27.601563 5.398438 28 6 28 L 10 28 C 10.601563 28 11 27.601563 11 27 L 11 23 C 11 22.398438 10.601563 22 10 22 Z M 14 22 C 13.398438 22 13 22.398438 13 23 L 13 27 C 13 27.601563 13.398438 28 14 28 L 18 28 C 18.601563 28 19 27.601563 19 27 L 19 23 C 19 22.398438 18.601563 22 18 22 Z M 23 22 C 22.398438 22 22 22.398438 22 23 L 22 28 L 28 28 L 28 23 C 28 22.398438 27.601563 22 27 22 Z M 33 22 C 31.898438 22 31 22.898438 31 24 L 31 26 C 31 27.101563 31.898438 28 33 28 L 35 28 C 36.101563 28 37 27.101563 37 26 L 37 24 C 37 22.898438 36.101563 22 35 22 Z M 40 22 C 39.398438 22 39 22.398438 39 23 L 39 28 L 45 28 L 45 23 C 45 22.398438 44.601563 22 44 22 Z"/></svg>