<?xml version="1.0" encoding="UTF-8"?>
<svg xmlns="http://www.w3.org/2000/svg" xmlns:xlink="http://www.w3.org/1999/xlink" viewBox="0 0 24 24" width="24px" height="24px">
<g id="surface21522423">
<path style=" stroke:none;fill-rule:nonzero;fill:rgb(0%,0%,0%);fill-opacity:1;" d="M 20 2 C 21.09375 2 22 2.90625 22 4 L 22 12.675781 C 21.378906 12.378906 20.707031 12.171875 20 12.070312 L 20 10 L 16 10 L 16 12.675781 C 14.546875 13.367188 13.367188 14.546875 12.675781 16 L 10 16 L 10 20 L 12.070312 20 C 12.171875 20.707031 12.378906 21.378906 12.675781 22 L 4 22 C 2.90625 22 2 21.09375 2 20 L 2 4 C 2 2.90625 2.90625 2 4 2 Z M 4 8 L 8 8 L 8 4 L 4 4 Z M 10 8 L 14 8 L 14 4 L 10 4 Z M 16 8 L 20 8 L 20 4 L 16 4 Z M 6.5 5 C 6.777344 5 7 5.222656 7 5.5 L 7 6.5 C 7 6.777344 6.777344 7 6.5 7 L 5.5 7 C 5.222656 7 5 6.777344 5 6.5 L 5 5.5 C 5 5.222656 5.222656 5 5.5 5 Z M 12.5 5 C 12.777344 5 13 5.222656 13 5.5 L 13 6.5 C 13 6.777344 12.777344 7 12.5 7 L 11.5 7 C 11.222656 7 11 6.777344 11 6.5 L 11 5.5 C 11 5.222656 11.222656 5 11.5 5 Z M 18.5 5 C 18.777344 5 19 5.222656 19 5.5 L 19 6.5 C 19 6.777344 18.777344 7 18.5 7 L 17.5 7 C 17.222656 7 17 6.777344 17 6.5 L 17 5.5 C 17 5.222656 17.222656 5 17.5 5 Z M 4 14 L 8 14 L 8 10 L 4 10 Z M 10 14 L 14 14 L 14 10 L 10 10 Z M 6.5 11 C 6.777344 11 7 11.222656 7 11.5 L 7 12.5 C 7 12.777344 6.777344 13 6.5 13 L 5.5 13 C 5.222656 13 5 12.777344 5 12.5 L 5 11.5 C 5 11.222656 5.222656 11 5.5 11 Z M 4 20 L 8 20 L 8 16 L 4 16 Z M 6.5 17 C 6.777344 17 7 17.222656 7 17.5 L 7 18.5 C 7 18.777344 6.777344 19 6.5 19 L 5.5 19 C 5.222656 19 5 18.777344 5 18.5 L 5 17.5 C 5 17.222656 5.222656 17 5.5 17 Z M 6.5 17 "/>
<path style=" stroke:none;fill-rule:nonzero;fill:rgb(0%,0%,0%);fill-opacity:1;" d="M 19 14 C 16.25 14 14 16.25 14 19 C 14 21.75 16.25 24 19 24 C 21.75 24 24 21.75 24 19 C 24 16.25 21.75 14 19 14 Z M 22.160156 17.289062 C 22.546875 17.675781 22.546875 18.304688 22.160156 18.691406 L 19.097656 21.753906 C 18.933594 21.917969 18.714844 22 18.5 22 C 18.285156 22 18.070312 21.917969 17.902344 21.753906 L 16 19.847656 C 15.613281 19.460938 15.613281 18.835938 16 18.449219 C 16.386719 18.0625 17.011719 18.0625 17.398438 18.449219 L 18.5 19.550781 L 20.761719 17.289062 C 20.960938 17.089844 21.222656 16.992188 21.484375 17 C 21.730469 17.007812 21.972656 17.101562 22.160156 17.289062 Z M 22.160156 17.289062 "/>
</g>
</svg>
