<?xml version="1.0" encoding="UTF-8"?>
<svg xmlns="http://www.w3.org/2000/svg" xmlns:xlink="http://www.w3.org/1999/xlink" viewBox="0 0 50 50" width="50px" height="50px">
<g id="surface141760105">
<path style=" stroke:none;fill-rule:nonzero;fill:rgb(0%,0%,0%);fill-opacity:1;" d="M 12.5 4.167969 C 10.21875 4.167969 8.332031 6.054688 8.332031 8.332031 L 8.332031 41.667969 C 8.332031 43.945312 10.21875 45.832031 12.5 45.832031 L 37.5 45.832031 C 39.78125 45.832031 41.667969 43.945312 41.667969 41.667969 L 41.667969 16.667969 L 29.167969 4.167969 Z M 12.5 8.332031 L 27.082031 8.332031 L 27.082031 18.75 L 37.5 18.75 L 37.5 41.667969 L 12.5 41.667969 Z M 16.667969 25 L 16.667969 29.167969 L 33.332031 29.167969 L 33.332031 25 Z M 16.667969 33.332031 L 16.667969 37.5 L 33.332031 37.5 L 33.332031 33.332031 Z M 16.667969 33.332031 "/>
<path style=" stroke:none;fill-rule:nonzero;fill:rgb(0%,0%,0%);fill-opacity:1;" d="M 41.015625 2.34375 C 38.320312 2.34375 36.132812 4.53125 36.132812 7.226562 C 36.132812 9.921875 38.320312 12.109375 41.015625 12.109375 C 43.710938 12.109375 45.898438 9.921875 45.898438 7.226562 C 45.898438 4.53125 43.710938 2.34375 41.015625 2.34375 Z M 43.945312 8.203125 L 41.992188 8.203125 L 41.992188 10.15625 L 40.039062 10.15625 L 40.039062 8.203125 L 38.085938 8.203125 L 38.085938 6.25 L 40.039062 6.25 L 40.039062 4.296875 L 41.992188 4.296875 L 41.992188 6.25 L 43.945312 6.25 Z M 43.945312 8.203125 "/>
</g>
</svg>
