<svg xmlns="http://www.w3.org/2000/svg"  viewBox="0 0 24 24" width="50px" height="50px"><path d="M 19.5 4 C 18.119 4 17 5.119 17 6.5 L 17 17.5 C 17 18.881 18.119 20 19.5 20 C 20.881 20 22 18.881 22 17.5 L 22 6.5 C 22 5.119 20.881 4 19.5 4 z M 12.5 8 C 11.119 8 10 9.119 10 10.5 L 10 17.5 C 10 18.881 11.119 20 12.5 20 C 13.881 20 15 18.881 15 17.5 L 15 10.5 C 15 9.119 13.881 8 12.5 8 z M 5.5 12 C 4.119 12 3 13.119 3 14.5 L 3 17.5 C 3 18.881 4.119 20 5.5 20 C 6.881 20 8 18.881 8 17.5 L 8 14.5 C 8 13.119 6.881 12 5.5 12 z"/></svg>