<svg xmlns="http://www.w3.org/2000/svg" xmlns:xlink="http://www.w3.org/1999/xlink" viewBox="0,0,256,256" width="50px" height="50px"><defs><clipPath id="clip-1"><path d="M0,256v-256h256v256l-61.20762,0l9.9181,-9.9181c2.77333,-2.77333 4.31238,-6.4381 4.44952,-10.2019c5.85143,-2.27048 11.20762,-5.75238 15.77905,-10.31619l15.2381,-15.2381c8.64,-8.63238 13.39429,-20.11429 13.39429,-32.32762c0,-12.21333 -4.75429,-23.69524 -13.39429,-32.32762c-8.32,-8.32 -20.09905,-13.09714 -32.32,-13.09714c-12.22095,0 -24,4.77714 -32.32,13.09714l-10.24762,10.25524c-2.77333,2.77333 -4.31238,6.4381 -4.45714,10.19429c-5.84381,2.27048 -11.20762,5.75238 -15.77143,10.32381l-15.2381,15.2381c-8.64,8.62476 -13.39429,20.10667 -13.39429,32.32c0,12.05857 4.63456,23.40413 13.06771,31.9981z" id="overlayBgMask" fill="none"></path></clipPath></defs><g transform=""><g clip-path="url(#clip-1)" fill="none" fill-rule="nonzero" stroke="none" stroke-width="1" stroke-linecap="butt" stroke-linejoin="miter" stroke-miterlimit="10" stroke-dasharray="" stroke-dashoffset="0" font-family="none" font-weight="none" font-size="none" text-anchor="none" style="mix-blend-mode: normal"><g transform="scale(10.66667,10.66667)" fill="#000000"><path d="M4,4c-1.09425,0 -2,0.90575 -2,2v12c0,1.09426 0.90575,2 2,2h16c1.09426,0 2,-0.90574 2,-2v-10c0,-1.09425 -0.90574,-2 -2,-2h-8l-2,-2zM4,6h5.17188l2,2h8.82813v10h-16z"></path></g></g><g fill="#000000" fill-rule="nonzero" stroke="none" stroke-width="1" stroke-linecap="butt" stroke-linejoin="miter" stroke-miterlimit="10" stroke-dasharray="" stroke-dashoffset="0" font-family="none" font-weight="none" font-size="none" text-anchor="none" style="mix-blend-mode: normal"><g transform="translate(131.66667,147.52048) scale(7.61905,7.61905)" id="overlay"><path d="M14,4c0,1.068 -0.416,2.073 -1.172,2.828l-2,2c-0.755,0.756 -1.76,1.172 -2.828,1.172c-0.598,0 -1.176,-0.13 -1.702,-0.378c-0.635,-0.299 -0.791,-1.13 -0.295,-1.626l0.001,-0.001c0.305,-0.305 0.762,-0.364 1.156,-0.189c0.739,0.327 1.666,0.196 2.253,-0.392l1.951,-1.951c0.359,-0.359 0.6,-0.83 0.631,-1.336c0.036,-0.581 -0.174,-1.134 -0.582,-1.542c-0.408,-0.408 -0.96,-0.618 -1.542,-0.582c-0.505,0.032 -0.976,0.274 -1.334,0.632l-0.343,0.343c-0.756,-0.33 -1.562,-0.487 -2.367,-0.461l1.345,-1.345c1.51,-1.511 4.145,-1.511 5.656,0c0.756,0.755 1.172,1.76 1.172,2.828zM5.463,11.403c-0.359,0.359 -0.83,0.6 -1.336,0.631c-0.581,0.036 -1.134,-0.174 -1.542,-0.582c-0.408,-0.408 -0.618,-0.96 -0.582,-1.542c0.031,-0.506 0.273,-0.977 0.631,-1.336l1.951,-1.951c0.588,-0.588 1.515,-0.719 2.253,-0.392c0.394,0.174 0.851,0.115 1.156,-0.19l0.001,-0.001c0.496,-0.496 0.34,-1.327 -0.295,-1.626c-0.524,-0.245 -1.102,-0.376 -1.7,-0.376c-1.068,0 -2.073,0.416 -2.828,1.171l-2,2c-0.756,0.756 -1.172,1.761 -1.172,2.829c0,1.068 0.416,2.073 1.172,2.828c1.511,1.512 4.146,1.511 5.656,0l1.345,-1.345c-0.805,0.026 -1.611,-0.131 -2.367,-0.461z"></path></g></g></g></svg>