<svg xmlns="http://www.w3.org/2000/svg"  viewBox="0 0 24 24" width="50px" height="50px"><path d="M 4.984375 2.9863281 A 1.0001 1.0001 0 0 0 4 4 L 4 18 C 4 19.093063 4.9069372 20 6 20 L 20 20 A 1.0001 1.0001 0 1 0 20 18 L 6 18 L 6 4 A 1.0001 1.0001 0 0 0 4.984375 2.9863281 z M 19.980469 5.9902344 A 1.0001 1.0001 0 0 0 19.292969 6.2929688 L 16 9.5859375 L 13.707031 7.2929688 A 1.0001 1.0001 0 0 0 12.292969 7.2929688 L 7.2929688 12.292969 A 1.0001 1.0001 0 1 0 8.7070312 13.707031 L 13 9.4140625 L 15.292969 11.707031 A 1.0001 1.0001 0 0 0 16.707031 11.707031 L 20.707031 7.7070312 A 1.0001 1.0001 0 0 0 19.980469 5.9902344 z"/></svg>