<?xml version="1.0" encoding="UTF-8"?>
<svg xmlns="http://www.w3.org/2000/svg" xmlns:xlink="http://www.w3.org/1999/xlink" viewBox="0 0 50 50" width="50px" height="50px">
<g id="surface48668963">
<path style=" stroke:none;fill-rule:nonzero;fill:rgb(0%,0%,0%);fill-opacity:1;" d="M 20.832031 8.332031 L 25 12.5 L 41.667969 12.5 C 43.945312 12.5 45.832031 14.386719 45.832031 16.667969 L 45.832031 24.726562 C 44.539062 24.042969 43.140625 23.535156 41.667969 23.234375 L 41.667969 16.667969 L 23.273438 16.667969 L 19.109375 12.5 L 8.332031 12.5 L 8.332031 37.5 L 22.957031 37.5 C 22.933594 37.84375 22.921875 38.191406 22.921875 38.542969 C 22.921875 39.605469 23.027344 40.648438 23.234375 41.667969 L 8.332031 41.667969 C 6.054688 41.667969 4.167969 39.78125 4.167969 37.5 L 4.167969 12.5 C 4.167969 10.21875 6.054688 8.332031 8.332031 8.332031 Z M 20.832031 8.332031 "/>
<path style=" stroke:none;fill-rule:nonzero;fill:rgb(0%,0%,0%);fill-opacity:1;" d="M 50 38.542969 C 50 44.507812 45.414062 49.472656 39.585938 50 L 39.585938 45.78125 C 43.171875 45.246094 45.828125 42.167969 45.835938 38.542969 C 45.835938 34.523438 42.5625 31.253906 38.542969 31.253906 C 34.523438 31.253906 31.253906 34.523438 31.253906 38.542969 C 31.253906 39.996094 31.714844 41.351562 32.484375 42.519531 L 35.417969 39.585938 L 35.417969 47.917969 L 27.085938 47.917969 L 29.472656 45.53125 C 27.921875 43.53125 27.082031 41.074219 27.085938 38.542969 C 27.085938 32.226562 32.226562 27.085938 38.542969 27.085938 C 44.859375 27.085938 50 32.226562 50 38.542969 Z M 50 38.542969 "/>
</g>
</svg>
