<svg xmlns="http://www.w3.org/2000/svg"  viewBox="0 0 24 24" width="50px" height="50px"><path d="M 3 2 C 1.895 2 1 2.895 1 4 L 1 16 C 1 17.105 1.895 18 3 18 L 10 18 L 10 20 L 9 20 C 8.448 20 8 20.448 8 21 C 8 21.552 8.448 22 9 22 L 15 22 C 15.552 22 16 21.552 16 21 C 16 20.448 15.552 20 15 20 L 14 20 L 14 18 L 21 18 C 22.105 18 23 17.105 23 16 L 23 4 C 23 2.895 22.105 2 21 2 L 3 2 z M 3 4 L 21 4 L 21 16 L 3 16 L 3 4 z M 11.5 6 C 11.224 6 11 6.224 11 6.5 L 11 10.5 C 11 10.776 11.224 11 11.5 11 L 12.5 11 C 12.776 11 13 10.776 13 10.5 L 13 6.5 C 13 6.224 12.776 6 12.5 6 L 11.5 6 z M 11.5 12 C 11.224 12 11 12.224 11 12.5 L 11 13.5 C 11 13.776 11.224 14 11.5 14 L 12.5 14 C 12.776 14 13 13.776 13 13.5 L 13 12.5 C 13 12.224 12.776 12 12.5 12 L 11.5 12 z"/></svg>