<?xml version="1.0" encoding="UTF-8"?>
<svg xmlns="http://www.w3.org/2000/svg" xmlns:xlink="http://www.w3.org/1999/xlink" viewBox="0 0 24 24" width="24px" height="24px">
<g id="surface21570082">
<path style=" stroke:none;fill-rule:nonzero;fill:rgb(0%,0%,0%);fill-opacity:1;" d="M 10 4 L 12 6 L 20 6 C 21.09375 6 22 6.90625 22 8 L 22 15.257812 C 21.410156 14.925781 20.746094 14.632812 20 14.414062 L 20 8 L 11.171875 8 L 9.171875 6 L 4 6 L 4 18 L 8.90625 18 C 8.449219 18.621094 8.222656 19.078125 8.195312 19.136719 C 8.066406 19.410156 8 19.707031 8 20 L 4 20 C 2.90625 20 2 19.09375 2 18 L 2 6 C 2 4.90625 2.90625 4 4 4 Z M 10 4 "/>
<path style=" stroke:none;fill-rule:nonzero;fill:rgb(0%,0%,0%);fill-opacity:1;" d="M 17 16 C 11.910156 16 10 20 10 20 C 10 20 11.910156 24 17 24 C 22.089844 24 24 20 24 20 C 24 20 22.089844 16 17 16 Z M 17 22 C 15.894531 22 15 21.105469 15 20 C 15 18.894531 15.894531 18 17 18 C 18.105469 18 19 18.894531 19 20 C 19 21.105469 18.105469 22 17 22 Z M 17 22 "/>
</g>
</svg>
