<?xml version="1.0" encoding="UTF-8"?>
<svg xmlns="http://www.w3.org/2000/svg" xmlns:xlink="http://www.w3.org/1999/xlink" viewBox="0 0 48 48" width="48px" height="48px">
<g id="surface21094865">
<path style=" stroke:none;fill-rule:nonzero;fill:rgb(0%,0%,0%);fill-opacity:1;" d="M 28 4 L 40 16 L 40 24.140625 C 39.347656 24.046875 38.679688 24 38 24 C 37.320312 24 36.652344 24.046875 36 24.140625 L 36 18 L 26 18 L 26 8 L 12 8 L 12 40 L 24.140625 40 C 24.34375 41.410156 24.757812 42.757812 25.351562 44 L 12 44 C 9.8125 44 8 42.1875 8 40 L 8 8 C 8 5.8125 9.8125 4 12 4 Z M 28 4 "/>
<path style=" stroke:none;fill-rule:nonzero;fill:rgb(0%,0%,0%);fill-opacity:1;" d="M 38 28 C 32.476562 28 28 32.476562 28 38 C 28 43.523438 32.476562 48 38 48 C 43.523438 48 48 43.523438 48 38 C 48 32.476562 43.523438 28 38 28 Z M 44 40 L 40 40 L 40 44 L 36 44 L 36 40 L 32 40 L 32 36 L 36 36 L 36 32 L 40 32 L 40 36 L 44 36 Z M 44 40 "/>
</g>
</svg>
