<svg xmlns="http://www.w3.org/2000/svg"  viewBox="0 0 24 24" width="50px" height="50px"><path d="M 0 0 L 0 2 L 3 2 L 3 0 Z M 5 0 L 5 2 L 8 2 L 8 0 Z M 10 0 L 10 2 L 13 2 L 13 0 Z M 15 0 L 15 2 L 18 2 L 18 0 Z M 20 0 L 20 2 L 24 2 L 24 0 Z M 3.5 4 C 2.78125 4 2.15625 4.324219 1.71875 4.71875 C 1.28125 5.113281 0.992188 5.59375 0.75 6.03125 C 0.269531 6.910156 0.03125 7.75 0.03125 7.75 L 1.96875 8.25 C 1.96875 8.25 2.15625 7.589844 2.5 6.96875 C 2.671875 6.65625 2.875 6.386719 3.0625 6.21875 C 3.25 6.050781 3.367188 6 3.5 6 C 3.511719 6 3.53125 5.976563 3.71875 6.21875 C 3.90625 6.460938 4.160156 6.929688 4.375 7.53125 C 4.703125 8.449219 4.988281 9.695313 5.28125 11 L 0 11 L 0 13 L 5.75 13 C 6.089844 14.488281 6.453125 15.96875 6.9375 17.1875 C 7.222656 17.902344 7.542969 18.539063 8 19.0625 C 8.457031 19.585938 9.136719 20 9.90625 20 C 10.738281 20 11.4375 19.46875 11.8125 18.9375 C 12.1875 18.40625 12.390625 17.886719 12.59375 17.40625 C 12.796875 16.925781 12.992188 16.527344 13.1875 16.3125 C 13.382813 16.097656 13.511719 16 13.90625 16 C 15.527344 16 16.757813 15.078125 17.4375 13.9375 C 18.117188 12.796875 18.414063 11.464844 18.65625 10.1875 C 18.898438 8.910156 19.097656 7.6875 19.375 6.90625 C 19.515625 6.515625 19.667969 6.238281 19.78125 6.125 C 19.894531 6.011719 19.914063 6 20.09375 6 C 20.808594 6 21.222656 6.414063 21.5625 7 C 21.902344 7.585938 22.03125 8.1875 22.03125 8.1875 L 23.96875 7.8125 C 23.96875 7.8125 23.816406 6.914063 23.28125 6 C 22.746094 5.085938 21.679688 4 20.09375 4 C 19.421875 4 18.769531 4.285156 18.34375 4.71875 C 17.917969 5.152344 17.695313 5.671875 17.5 6.21875 C 17.109375 7.3125 16.917969 8.589844 16.6875 9.8125 C 16.609375 10.226563 16.503906 10.613281 16.40625 11 L 9.09375 11 L 9.5 13 L 15.6875 13 C 15.265625 13.6875 14.855469 14 13.90625 14 C 13 14 12.207031 14.402344 11.71875 14.9375 C 11.230469 15.472656 10.972656 16.074219 10.75 16.59375 C 10.527344 17.113281 10.34375 17.59375 10.1875 17.8125 C 10.03125 18.03125 10.074219 18 9.90625 18 C 9.800781 18 9.714844 17.992188 9.5 17.75 C 9.285156 17.507813 9.019531 17.035156 8.78125 16.4375 C 8.308594 15.246094 7.917969 13.527344 7.53125 11.78125 C 7.144531 10.035156 6.761719 8.265625 6.25 6.84375 C 5.996094 6.132813 5.722656 5.523438 5.3125 5 C 4.902344 4.476563 4.265625 4 3.5 4 Z M 20 11 C 19.800781 12.101563 19.5 13 19.5 13 L 24 13 L 24 11 Z M 0 22 L 0 24 L 3 24 L 3 22 Z M 5 22 L 5 24 L 8 24 L 8 22 Z M 10 22 L 10 24 L 13 24 L 13 22 Z M 15 22 L 15 24 L 18 24 L 18 22 Z M 20 22 L 20 24 L 24 24 L 24 22 Z"/></svg>